<svg height="638" width="720" xmlns="http://www.w3.org/2000/svg">
<rect height="638" fill="#555" width="720"></rect>
<text fill="#7f7" font-family="Courier New" font-size="12" xml:space="preserve">
<tspan x="10" y="26">4 megabytes installed</tspan>
<tspan x="10" y="42"></tspan>
<tspan x="10" y="58">node_modules</tspan>
<tspan x="10" y="74">└─┬ postcss-modules@0.6.4 </tspan>
<tspan x="10" y="90">  ├─┬ css-modules-loader-core@1.0.1 </tspan>
<tspan x="10" y="106">  │ ├── icss-replace-symbols@1.0.2 </tspan>
<tspan x="10" y="122">  │ ├── postcss@5.1.2 </tspan>
<tspan x="10" y="138">  │ ├── postcss-modules-extract-imports@1.0.0 </tspan>
<tspan x="10" y="154">  │ ├─┬ postcss-modules-local-by-default@1.1.1 </tspan>
<tspan x="10" y="170">  │ │ └─┬ css-selector-tokenizer@0.6.0 </tspan>
<tspan x="10" y="186">  │ │   ├── cssesc@0.1.0 </tspan>
<tspan x="10" y="202">  │ │   ├── fastparse@1.1.1 </tspan>
<tspan x="10" y="218">  │ │   └─┬ regexpu-core@1.0.0 </tspan>
<tspan x="10" y="234">  │ │     ├── regenerate@1.3.2 </tspan>
<tspan x="10" y="250">  │ │     ├── regjsgen@0.2.0 </tspan>
<tspan x="10" y="266">  │ │     └─┬ regjsparser@0.1.5 </tspan>
<tspan x="10" y="282">  │ │       └── jsesc@0.5.0 </tspan>
<tspan x="10" y="298">  │ ├── postcss-modules-scope@1.0.2 </tspan>
<tspan x="10" y="314">  │ └── postcss-modules-values@1.2.2 </tspan>
<tspan x="10" y="330">  ├─┬ generic-names@1.0.2 </tspan>
<tspan x="10" y="346">  │ └─┬ loader-utils@0.2.17 </tspan>
<tspan x="10" y="362">  │   ├── big.js@3.1.3 </tspan>
<tspan x="10" y="378">  │   ├── emojis-list@2.1.0 </tspan>
<tspan x="10" y="394">  │   ├── json5@0.5.1 </tspan>
<tspan x="10" y="410">  │   └── object-assign@4.1.1 </tspan>
<tspan x="10" y="426">  ├─┬ postcss@5.2.17 </tspan>
<tspan x="10" y="442">  │ ├─┬ chalk@1.1.3 </tspan>
<tspan x="10" y="458">  │ │ ├── ansi-styles@2.2.1 </tspan>
<tspan x="10" y="474">  │ │ ├── escape-string-regexp@1.0.5 </tspan>
<tspan x="10" y="490">  │ │ ├─┬ has-ansi@2.0.0 </tspan>
<tspan x="10" y="506">  │ │ │ └── ansi-regex@2.1.1 </tspan>
<tspan x="10" y="522">  │ │ ├── strip-ansi@3.0.1 </tspan>
<tspan x="10" y="538">  │ │ └── supports-color@2.0.0 </tspan>
<tspan x="10" y="554">  │ ├── js-base64@2.1.9 </tspan>
<tspan x="10" y="570">  │ ├── source-map@0.5.6 </tspan>
<tspan x="10" y="586">  │ └─┬ supports-color@3.2.3 </tspan>
<tspan x="10" y="602">  │   └── has-flag@1.0.0 </tspan>
<tspan x="10" y="618">  └── string-hash@1.1.3</tspan>
</text>
</svg>
